<?xml version="1.0" encoding="utf-8"?>
<!-- Generator: Adobe Illustrator 19.0.0, SVG Export Plug-In . SVG Version: 6.00 Build 0)  -->
<svg version="1.1" id="Calque_1" xmlns="http://www.w3.org/2000/svg" xmlns:xlink="http://www.w3.org/1999/xlink" x="0px" y="0px"
	 viewBox="-461 322 100 125" style="enable-background:new -461 322 100 125;" xml:space="preserve">
<g>
	<path d="M-362.4,403.7l-24.8-39c-0.7-1.1-1.9-1.6-3.1-1.5c-1.2,0.1-2.3,1-2.7,2.2l-3.2,9.1l-7.7-11.7c0,0,0,0,0,0l-12.9-19.4
		c-0.6-0.9-1.6-1.5-2.8-1.5c-1.1,0-2.2,0.6-2.7,1.6l-36.7,60.3c-0.9,1.5-0.4,3.6,1.1,4.5c0.5,0.3,1.1,0.5,1.7,0.5
		c1.1,0,2.2-0.6,2.8-1.6l17.4-28.6l4.9,5.4c0.6,0.7,1.5,1.1,2.4,1.1c0.1,0,0.1,0,0.2,0c1-0.1,1.9-0.6,2.5-1.4l6.6-9.6l2.6,3.3
		c0.6,0.8,1.6,1.3,2.7,1.3c1,0,2-0.5,2.6-1.4l4.7-6.8l8.8,13.2c0.7,1,1.9,1.6,3.1,1.4c1.2-0.2,2.3-1,2.7-2.2l3.1-8.9l21.2,33.3
		c1,1.5,3,2,4.5,1C-361.8,407.3-361.4,405.2-362.4,403.7z"/>
</g>
<path d="M-380.8,333.5c-6.2,0-11.2,5-11.2,11.2c0,6.2,5,11.2,11.2,11.2c6.2,0,11.2-5,11.2-11.2
	C-369.7,338.5-374.7,333.5-380.8,333.5z"/>
</svg>
