<?xml version="1.0" encoding="utf-8"?>
<!-- Generator: Adobe Illustrator 19.0.0, SVG Export Plug-In . SVG Version: 6.00 Build 0)  -->
<svg version="1.1" id="Calque_1" xmlns="http://www.w3.org/2000/svg" xmlns:xlink="http://www.w3.org/1999/xlink" x="0px" y="0px"
	 viewBox="-461 322 100 125" style="enable-background:new -461 322 100 125;" xml:space="preserve">
<path d="M-439.3,366.2c1.7-2.7,4.7-4.3,7.9-4.3c0.4,0,0.7,0,1.1,0.1c2.5,0.3,4.7,1.6,6.3,3.5l13-19.7c1.7-2.6,4.7-4.2,7.8-4.2l0.2,0
	c3.2,0.1,6.2,1.7,7.8,4.5l27,44.4c2.8-6.1,4.3-12.7,4.3-19.5c0-25.6-20.8-46.4-46.4-46.4c-25.6,0-46.4,20.8-46.4,46.4
	c0,6,1.2,11.9,3.4,17.4L-439.3,366.2z"/>
<path d="M-365.5,406.9l-35-57.6c-0.6-0.9-1.5-1.5-2.6-1.5c-1.1,0-2.1,0.5-2.7,1.4l-19.7,29.7l-3-8.7c-0.4-1.1-1.4-1.9-2.6-2.1
	c-1.2-0.1-2.4,0.4-3,1.4l-23.7,37.2c-0.9,1.5-0.5,3.4,1,4.3c1.5,0.9,3.4,0.5,4.3-1l20.2-31.8l3,8.5c0.4,1.1,1.4,1.9,2.6,2.1
	c1.2,0.1,2.3-0.4,3-1.4l7.3-11l5.2,7.5c0.6,0.8,1.5,1.3,2.5,1.3c1,0,1.9-0.4,2.5-1.2l2.5-3.1l6.3,9.2c0.5,0.8,1.4,1.3,2.4,1.3
	c0.1,0,0.1,0,0.2,0c0.9,0,1.7-0.4,2.3-1l5.9-6.5l15.8,26c0.6,1,1.6,1.5,2.7,1.5c0.6,0,1.1-0.1,1.6-0.5
	C-365,410.3-364.6,408.3-365.5,406.9z M-394.5,383.5l-6.5-9.4c-0.6-0.8-1.5-1.3-2.5-1.4c-1,0-1.9,0.4-2.6,1.2l-2.5,3.2l-4.2-6
	l9.4-14.3l13.3,21.8L-394.5,383.5z"/>
</svg>
