<?xml version="1.0" encoding="utf-8"?>
<!-- Generator: Adobe Illustrator 19.0.0, SVG Export Plug-In . SVG Version: 6.00 Build 0)  -->
<svg version="1.1" id="Calque_1" xmlns="http://www.w3.org/2000/svg" xmlns:xlink="http://www.w3.org/1999/xlink" x="0px" y="0px"
	 viewBox="-461 322 100 125" style="enable-background:new -461 322 100 125;" xml:space="preserve">
<path d="M-362.9,405.5l-36.1-59.3c-0.6-0.9-1.6-1.5-2.7-1.5c-1.1-0.1-2.1,0.5-2.7,1.4l-20.3,30.6l-3.1-8.9c-0.4-1.2-1.4-2-2.7-2.1
	c-1.2-0.1-2.4,0.4-3.1,1.5l-24.4,38.4c-1,1.5-0.5,3.5,1,4.4c1.5,1,3.5,0.5,4.4-1l20.9-32.7l3.1,8.8c0.4,1.2,1.4,2,2.6,2.1
	c1.2,0.1,2.4-0.4,3.1-1.4l8.6-13l4.7,6.7c0.6,0.8,1.5,1.4,2.6,1.4c1,0,2-0.4,2.6-1.2l2.5-3.2l6.5,9.5c0.6,0.8,1.5,1.3,2.4,1.4
	c0.1,0,0.1,0,0.2,0c0.9,0,1.8-0.4,2.4-1.1l4.8-5.3l17.1,28.1c0.6,1,1.7,1.5,2.8,1.5c0.6,0,1.1-0.2,1.7-0.5
	C-362.5,409-362,407-362.9,405.5z M-392.4,378.7l-6.7-9.7c-0.6-0.8-1.5-1.4-2.6-1.4c-1,0-2,0.4-2.6,1.2l-2.5,3.3l-3.6-5.2l8.6-13
	L-389,375L-392.4,378.7z"/>
<path d="M-433.1,358.4c4.8,0,9.4-2.4,12.2-6.3c0.6-0.9,0.8-2.1,0.3-3.1c-0.4-1-1.3-1.7-2.4-2c-4-0.7-6.9-4.2-6.9-8.3
	c0-1.7,0.5-3.4,1.5-4.8c0.6-0.9,0.7-2.1,0.3-3.1c-0.4-1-1.3-1.7-2.4-1.9c-0.9-0.2-1.8-0.2-2.6-0.2c-8.2,0-14.8,6.7-14.8,14.8
	C-448,351.7-441.3,358.4-433.1,358.4z M-436,335.6c-0.2,1-0.3,2-0.3,3.1c0,5.1,2.6,9.8,6.7,12.4c-1.1,0.5-2.3,0.8-3.5,0.8
	c-4.6,0-8.4-3.8-8.4-8.4C-441.5,339.9-439.2,336.8-436,335.6z"/>
</svg>
