<?xml version="1.0" encoding="utf-8"?>
<!-- Generator: Adobe Illustrator 19.0.0, SVG Export Plug-In . SVG Version: 6.00 Build 0)  -->
<svg version="1.1"
	 id="Calque_1" xmlns:dc="http://purl.org/dc/elements/1.1/" xmlns:inkscape="http://www.inkscape.org/namespaces/inkscape" xmlns:rdf="http://www.w3.org/1999/02/22-rdf-syntax-ns#" xmlns:svg="http://www.w3.org/2000/svg" xmlns:cc="http://creativecommons.org/ns#" xmlns:sodipodi="http://sodipodi.sourceforge.net/DTD/sodipodi-0.dtd"
	 xmlns="http://www.w3.org/2000/svg" xmlns:xlink="http://www.w3.org/1999/xlink" x="0px" y="0px" viewBox="-447 305 128 160"
	 style="enable-background:new -447 305 128 160;" xml:space="preserve">
<path d="M-358,321c-0.5,0-0.9,0.1-1.4,0.3l-19.3,9.7H-428c-1.7,0-3,1.3-3,3v80c0,1.7,1.3,3,3,3h50c0.5,0,0.9-0.1,1.3-0.3l18.7-9.3
	l18.7,9.3c0.4,0.2,0.9,0.3,1.3,0.3c0.5,0,1.1-0.2,1.6-0.4c0.9-0.5,1.4-1.5,1.4-2.6v-80c0-1.1-0.6-2.2-1.7-2.7l-20-10
	C-357.1,321.1-357.5,321-358,321z M-358,327.4l17,8.5v73.3l-15.7-7.8c-0.4-0.3-0.8-0.4-1.3-0.4V327.4z M-425,337h47v73.6l-0.7,0.4
	H-425V337z M-406.1,350c-0.8,0-1.5,0.3-2.1,0.9c-1.2,1.2-1.2,3.1,0,4.2l2.8,2.8l-2.8,2.8c-1.2,1.2-1.2,3.1,0,4.2
	c0.6,0.6,1.4,0.9,2.1,0.9s1.5-0.3,2.1-0.9l2.8-2.8l2.8,2.8c0.6,0.6,1.4,0.9,2.1,0.9s1.5-0.3,2.1-0.9c1.2-1.2,1.2-3.1,0-4.2l-2.8-2.7
	l2.8-2.8c1.2-1.2,1.2-3.1,0-4.3s-3.1-1.2-4.2,0l-2.8,2.8l-2.8-2.8C-404.6,350.3-405.4,350-406.1,350z M-401.4,370.5
	c-1,0.1-1.9,0.6-2.4,1.5l-0.5,0.9c-0.8,1.4-0.3,3.3,1.1,4.1c0.5,0.3,1,0.4,1.5,0.4c1,0,2-0.6,2.6-1.5l0.5-0.9
	c0.8-1.4,0.3-3.3-1.1-4.1C-400.2,370.6-400.8,370.5-401.4,370.5z M-405.2,382.5c-0.2,0-0.4,0-0.6,0c-1.6,0.2-2.8,1.7-2.6,3.3
	c0.1,0.4,0.1,0.8,0.2,1.2c0.3,1.4,1.5,2.4,2.9,2.4c0.2,0,0.4,0,0.6-0.1c1.6-0.3,2.7-1.9,2.3-3.6c0-0.1-0.1-0.3-0.1-0.6
	C-402.7,383.7-403.8,382.6-405.2,382.5z M-362.8,382.6c0.8,0,1.5,0.4,2.1,1c1.1,1.2,1,3.1-0.2,4.2l-0.7,0.7c-0.6,0.5-1.3,0.8-2,0.8
	c-0.8,0-1.6-0.3-2.2-1c-1.1-1.2-1-3.1,0.2-4.2l0.7-0.7C-364.3,382.9-363.5,382.6-362.8,382.6z M-354.8,383.2c-0.6,0-1.1,0.2-1.6,0.6
	c-1.3,1-1.5,2.9-0.5,4.2l0.6,0.8c0.5,0.7,1.4,1.1,2.3,1.1c0.7,0,1.3-0.2,1.9-0.6c1.3-1,1.5-2.9,0.5-4.2l-0.6-0.8
	C-352.8,383.5-353.8,383.1-354.8,383.2z M-372.4,391.3c0.8,0,1.5,0.4,2.1,1c1.1,1.2,1,3.1-0.2,4.2l-0.7,0.7c-0.6,0.5-1.3,0.8-2,0.8
	c-0.8,0-1.6-0.3-2.2-1c-1.1-1.2-1-3.1,0.2-4.2l0.7-0.7C-373.9,391.5-373.1,391.3-372.4,391.3z M-398,392.2c-1.2,0.1-2.2,0.8-2.6,1.9
	c-0.5,1.6,0.3,3.3,1.8,3.8c0.4,0.1,0.8,0.3,1.2,0.4c0.3,0.1,0.5,0.1,0.8,0.1c1.3,0,2.6-0.9,2.9-2.2c0.4-1.6-0.6-3.3-2.2-3.7
	c-0.2-0.1-0.5-0.1-0.7-0.2C-397.2,392.2-397.6,392.1-398,392.2z M-385.2,394.1c-1.4,0.1-2.5,1.2-2.8,2.6c-0.2,1.6,1,3.1,2.6,3.4
	l1,0.1h0.4c1.5,0,2.8-1.1,3-2.6c0.2-1.7-0.9-3.2-2.6-3.4l-1-0.1C-384.8,394.1-385,394.1-385.2,394.1z"/>
</svg>
