<?xml version="1.0" encoding="utf-8"?>
<!-- Generator: Adobe Illustrator 19.0.0, SVG Export Plug-In . SVG Version: 6.00 Build 0)  -->
<svg version="1.1"
	 id="Calque_1" xmlns:dc="http://purl.org/dc/elements/1.1/" xmlns:inkscape="http://www.inkscape.org/namespaces/inkscape" xmlns:rdf="http://www.w3.org/1999/02/22-rdf-syntax-ns#" xmlns:svg="http://www.w3.org/2000/svg" xmlns:cc="http://creativecommons.org/ns#" xmlns:sodipodi="http://sodipodi.sourceforge.net/DTD/sodipodi-0.dtd"
	 xmlns="http://www.w3.org/2000/svg" xmlns:xlink="http://www.w3.org/1999/xlink" x="0px" y="0px" viewBox="-447 305 128 160"
	 style="enable-background:new -447 305 128 160;" xml:space="preserve">
<path d="M-388,312c-6.1,0-11,4.9-11,11v3h-19c-1.7,0-3,1.3-3,3v2h-5c-1.7,0-3,1.3-3,3v14c0,1.7,1.3,3,3,3h5v5.4c-5.2,1.3-9,6-9,11.6
	v12c0,5.7,4,10.4,9.3,11.7c0.3,1.6,1,3.1,1.8,4.4c-4,0.5-7.1,3.8-7.1,7.9v10c0,4.4,3.6,8,8,8h12c0,1.7,1.3,3,3,3s3-1.3,3-3h24
	c0,1.7,1.3,3,3,3s3-1.3,3-3h12c4.4,0,8-3.6,8-8v-10c0-4.1-3.1-7.5-7.1-7.9c0.9-1.3,1.5-2.8,1.8-4.4c5.3-1.3,9.3-6,9.3-11.7v-12
	c0-5.6-3.8-10.3-9-11.6V351h5c1.7,0,3-1.3,3-3v-14c0-1.7-1.3-3-3-3h-5v-2c0-1.7-1.3-3-3-3h-19v-3C-377,316.9-381.9,312-388,312z
	 M-388,318c2.8,0,5,2.2,5,5v3h-10v-3C-393,320.2-390.8,318-388,318z M-415,332h46c1.7,0,3,1.3,3,3v16.7c-0.6,0.2-1.3,0.3-2,0.3h-2
	v-2.8c0-1.6-1.2-3.1-2.8-3.2c-1.7-0.1-3.2,1.3-3.2,3v3h-24v-2.8c0-1.6-1.2-3.1-2.8-3.2c-1.7-0.1-3.2,1.3-3.2,3v3h-2
	c-3.9,0-7-3.1-7-7V332z M-423,337h2v8h-2V337z M-415,355.9c2,1.3,4.4,2.1,7,2.1h2v6c0,1.7,1.3,3,3,3s3-1.3,3-3v-6h24v6
	c0,1.7,1.3,3,3,3s3-1.3,3-3v-6h2c0.7,0,1.3-0.1,2-0.2V384c0,2.8-1.7,5.2-4.1,6.4c-0.3-1.4-1.5-2.4-2.9-2.4h-30c-1.7,0-3,1.3-3,3h-2
	c-3.9,0-7-3.1-7-7v-25V355.9z M-421,362.8v22.4c-1.8-1-3-3-3-5.2v-12C-424,365.8-422.8,363.8-421,362.8z M-418,402h10h2v10h-12
	c-0.7,0-1.4-0.2-2-0.4V404C-420,402.9-419.1,402-418,402z M-400,402h24v10h-24V402z M-370,402h2h10c1.1,0,2,0.9,2,2v7.6
	c-0.6,0.3-1.3,0.4-2,0.4h-12V402z"/>
</svg>
