<?xml version="1.0" encoding="utf-8"?>
<!-- Generator: Adobe Illustrator 19.0.0, SVG Export Plug-In . SVG Version: 6.00 Build 0)  -->
<svg version="1.1" id="Calque_1" xmlns="http://www.w3.org/2000/svg" xmlns:xlink="http://www.w3.org/1999/xlink" x="0px" y="0px"
	 viewBox="-461 322 100 125" style="enable-background:new -461 322 100 125;" xml:space="preserve">
<path d="M-402.9,344.8c4.8,1,9.6-2.1,10.6-6.9c1-4.8-2.1-9.6-6.9-10.6c-4.8-1-9.6,2.1-10.6,6.9
	C-410.9,339.1-407.8,343.8-402.9,344.8z"/>
<path d="M-383.2,369.5l-1.7,8.5l-12.1-29.1l-10-2.1l-7.7-1.6l-3.5-0.7c-0.1,0-0.2,0-0.3-0.1l-12.3,60.6c-1.2,5.6,1.8,11,7.4,12.2
	l2.2-10.2l5.2-24.8l3,0.6l5.4,24.2c1.8,7.7,6.3,11.3,11.8,10.2l-8.3-33.7l4.4-21.3l3.9,9.7l1.7,4.3c1.4,3.5,5,5.2,8.6,4.6l-7.4,36.1
	h3.8l9.6-47L-383.2,369.5z"/>
<path d="M-421.7,344.3c-4.8,0.5-8.9,4.1-10,9.2l-3.1,14.7l-1,4.5c-0.9,4.3,1.8,8.4,6.1,9.3L-421.7,344.3z"/>
</svg>
