<?xml version="1.0" encoding="utf-8"?>
<!-- Generator: Adobe Illustrator 19.0.0, SVG Export Plug-In . SVG Version: 6.00 Build 0)  -->
<svg version="1.1" id="Calque_1" xmlns="http://www.w3.org/2000/svg" xmlns:xlink="http://www.w3.org/1999/xlink" x="0px" y="0px"
	 viewBox="-461 322 100 125" style="enable-background:new -461 322 100 125;" xml:space="preserve">
<path d="M-407.2,344.6c4.9,1,9.6-2.1,10.6-7c1-4.9-2.1-9.6-7-10.6c-4.9-1-9.6,2.1-10.6,7C-415.2,338.9-412.1,343.6-407.2,344.6z"/>
<path d="M-377,344.2l-24.2,4.5l-10-2.1l-7.7-1.6l-3.5-0.7c-0.1,0-0.2,0-0.3-0.1l-12.3,60.8c-1.2,5.6,1.8,11,7.4,12.2l2.2-10.2
	l5.2-24.9l3,0.6l0,0l8.5,2l-1.1,5.6c-1.2,5.6,1.8,11,7.4,12.2l2.2-10.2l3.1-15.3l-9.3-2.3l3.9-16.7l17.4-3.1
	C-385.1,355-375.5,353.6-377,344.2z"/>
<path d="M-426,344.1c-4.8,0.5-9,4.1-10,9.2l-3.1,14.7l-1,4.5c-0.9,4.3,1.9,8.4,6.1,9.3L-426,344.1z"/>
<polygon points="-408.9,402.4 -425,417 -418.5,417 -408.9,408.2 -402.2,415 -388,402.6 -386.2,395.3 -402,409.2 "/>
</svg>
