<?xml version="1.0" encoding="utf-8"?>
<!-- Generator: Adobe Illustrator 19.0.0, SVG Export Plug-In . SVG Version: 6.00 Build 0)  -->
<svg version="1.1" id="Calque_1" xmlns="http://www.w3.org/2000/svg" xmlns:xlink="http://www.w3.org/1999/xlink" x="0px" y="0px"
	 viewBox="-461 322 100 125" style="enable-background:new -461 322 100 125;" xml:space="preserve">
<path d="M-451.9,409.2l16.5-25.9c0.7-1,1.9-1.6,3.1-1.5c1.2,0.1,2.3,1,2.7,2.1l3.1,8.9l20.2-30.6c0.6-0.9,1.6-1.5,2.7-1.4
	c1.1,0,2.1,0.6,2.7,1.5l29.6,48.7c0-0.1,0.1-0.1,0.1-0.1c5.2-7.8,7.9-16.9,7.9-26.3c0-26.3-21.4-47.7-47.7-47.7
	c-26.3,0-47.7,21.4-47.7,47.7c0,8.5,2.3,16.9,6.6,24.2C-452.1,408.9-452,409-451.9,409.2z"/>
</svg>
