<?xml version="1.0" encoding="utf-8"?>
<!-- Generator: Adobe Illustrator 19.0.0, SVG Export Plug-In . SVG Version: 6.00 Build 0)  -->
<svg version="1.1" id="Calque_1" xmlns="http://www.w3.org/2000/svg" xmlns:xlink="http://www.w3.org/1999/xlink" x="0px" y="0px"
	 viewBox="-461 322 100 125" style="enable-background:new -461 322 100 125;" xml:space="preserve">
<path d="M-363.3,402.2L-396,350c-0.4-0.7-1.2-1.1-2.1-1.1c-0.8,0-1.6,0.5-2,1.2l-16.4,30.9l-13.1-18c-0.5-0.6-1.2-1-2-1
	c-0.8,0-1.5,0.4-1.9,1.1l-24.5,39.3c-0.5,0.7-0.5,1.6-0.1,2.4c0.4,0.7,1.2,1.2,2,1.2h90.8c0,0,0,0,0,0c1.3,0,2.3-1,2.3-2.3
	C-362.8,403.1-363,402.6-363.3,402.2z"/>
<path d="M-418.7,360.1c4.9,0,8.8-4,8.8-8.8c0-4.9-4-8.8-8.8-8.8c-4.9,0-8.8,4-8.8,8.8C-427.5,356.1-423.6,360.1-418.7,360.1z"/>
</svg>
