<?xml version="1.0" encoding="utf-8"?>
<!-- Generator: Adobe Illustrator 19.0.0, SVG Export Plug-In . SVG Version: 6.00 Build 0)  -->
<svg version="1.1" id="Calque_1" xmlns="http://www.w3.org/2000/svg" xmlns:xlink="http://www.w3.org/1999/xlink" x="0px" y="0px"
	 viewBox="-461 322 100 125" style="enable-background:new -461 322 100 125;" xml:space="preserve">
<path d="M-433.7,340.9c-1.2,0-2.4,0.3-3.5,0.7c-2-3.5-5.7-5.9-10-5.9c-6.3,0-11.4,5.1-11.4,11.4c0,6.3,5.1,11.4,11.4,11.4h13.5
	c4.9,0,8.8-4,8.8-8.8C-424.9,344.9-428.9,340.9-433.7,340.9z"/>
<path d="M-363.1,403.6l-35.1-57.8c-0.6-0.9-1.6-1.5-2.6-1.5c-1.1,0-2.1,0.5-2.7,1.4l-19.8,30l-3-8.7c-0.4-1.1-1.4-2-2.6-2.1
	c-1.2-0.1-2.4,0.4-3,1.4l-23.9,37.6c-0.6,1-0.7,2.2-0.1,3.2c0.6,1,1.6,1.6,2.8,1.6h87.8c0,0,0,0,0,0c1.7,0,3.2-1.4,3.2-3.2
	C-362.4,404.8-362.6,404.1-363.1,403.6z"/>
</svg>
