<?xml version="1.0" encoding="utf-8"?>
<!-- Generator: Adobe Illustrator 19.0.0, SVG Export Plug-In . SVG Version: 6.00 Build 0)  -->
<svg version="1.1" id="Calque_1" xmlns="http://www.w3.org/2000/svg" xmlns:xlink="http://www.w3.org/1999/xlink" x="0px" y="0px"
	 viewBox="-461 322 100 125" style="enable-background:new -461 322 100 125;" xml:space="preserve">
<path d="M-388,358.1h13.5c4.9,0,8.9-4,8.9-8.9s-4-8.9-8.9-8.9c-1.2,0-2.4,0.2-3.5,0.7c-2-3.5-5.7-5.9-10-5.9
	c-6.3,0-11.5,5.2-11.5,11.5C-399.6,353-394.4,358.1-388,358.1z"/>
<path d="M-433.1,360.1c0-3.8-3.1-6.8-6.8-6.8c-0.9,0-1.8,0.2-2.7,0.5c-1.5-2.7-4.4-4.5-7.7-4.5c-4.9,0-8.8,4-8.8,8.8s4,8.8,8.8,8.8
	h10.3C-436.1,366.9-433.1,363.9-433.1,360.1z"/>
<path d="M-363.3,401.2l-21.9-34.4c-0.6-0.9-1.7-1.4-2.8-1.3c-1.1,0.1-2,0.9-2.4,1.9l-2.8,8l-6.8-10.3c0,0,0,0,0,0l-11.3-17.2
	c-0.5-0.8-1.4-1.3-2.5-1.3c-1,0-1.9,0.5-2.4,1.4l-32.4,53.2c-0.8,1.4-0.4,3.1,1,4c0.5,0.3,1,0.4,1.5,0.4c1,0,1.9-0.5,2.5-1.4
	l15.3-25.2l4.3,4.8c0.5,0.6,1.3,0.9,2.1,0.9c0.1,0,0.1,0,0.2,0c0.9-0.1,1.7-0.5,2.2-1.2l5.9-8.5l2.3,2.9c0.6,0.7,1.4,1.2,2.4,1.1
	c0.9,0,1.8-0.5,2.3-1.2l4.2-6l7.7,11.7c0.6,0.9,1.7,1.4,2.8,1.3c1.1-0.1,2-0.9,2.4-1.9l2.7-7.9l18.7,29.4c0.9,1.3,2.6,1.7,4,0.9
	C-362.8,404.3-362.4,402.5-363.3,401.2z"/>
</svg>
