<?xml version="1.0" encoding="utf-8"?>
<!-- Generator: Adobe Illustrator 19.0.0, SVG Export Plug-In . SVG Version: 6.00 Build 0)  -->
<svg version="1.1" id="Calque_1" xmlns="http://www.w3.org/2000/svg" xmlns:xlink="http://www.w3.org/1999/xlink" x="0px" y="0px"
	 viewBox="-461 322 100 125" style="enable-background:new -461 322 100 125;" xml:space="preserve">
<path d="M-362.2,398.7l-37-60.9c-0.6-1-1.6-1.6-2.8-1.6c-1.2,0-2.2,0.5-2.8,1.5l-13,19.6c0,0,0,0,0,0l-7.8,11.8l-3.2-9.2
	c-0.4-1.2-1.5-2.1-2.7-2.2c-1.3-0.1-2.5,0.4-3.2,1.5l-25.1,39.4c-1,1.5-0.5,3.6,1,4.6c1.5,1,3.6,0.5,4.6-1l21.4-33.6l3.1,9
	c0.4,1.2,1.5,2,2.7,2.2c1.3,0.2,2.5-0.4,3.2-1.5l8.8-13.4l4.8,6.9c0.6,0.9,1.6,1.4,2.6,1.4c1,0.1,2-0.4,2.7-1.3l2.6-3.3l6.7,9.7
	c0.6,0.8,1.5,1.4,2.5,1.4c0.1,0,0.1,0,0.2,0c0.9,0,1.8-0.4,2.4-1.1l5-5.4l17.5,28.8c0.6,1,1.7,1.6,2.8,1.6c0.6,0,1.2-0.2,1.7-0.5
	C-361.8,402.3-361.3,400.3-362.2,398.7z"/>
</svg>
